<mxfile host="app.diagrams.net" agent="Mozilla/5.0 (Macintosh; Intel Mac OS X 10_15_7) AppleWebKit/537.36 (KHTML, like Gecko) Chrome/126.0.0.0 Safari/537.36" version="24.7.5">
  <diagram name="Page-1" id="vQaCnDKdUDYM8QgX3WsJ">
    <mxGraphModel dx="1684" dy="2060" grid="1" gridSize="10" guides="1" tooltips="1" connect="1" arrows="1" fold="1" page="1" pageScale="1" pageWidth="827" pageHeight="1169" math="0" shadow="0">
      <root>
        <mxCell id="0" />
        <mxCell id="1" parent="0" />
        <mxCell id="15g_x9tIWpdfK9ImZUIh-2" value="" style="rounded=0;whiteSpace=wrap;html=1;" vertex="1" parent="1">
          <mxGeometry x="80" y="-550" width="520" height="580" as="geometry" />
        </mxCell>
        <mxCell id="15g_x9tIWpdfK9ImZUIh-3" value="TITLE" style="rounded=0;whiteSpace=wrap;html=1;" vertex="1" parent="1">
          <mxGeometry x="160" y="-510" width="360" height="80" as="geometry" />
        </mxCell>
        <mxCell id="15g_x9tIWpdfK9ImZUIh-4" value="" style="rounded=0;whiteSpace=wrap;html=1;" vertex="1" parent="1">
          <mxGeometry x="177.5" y="-390" width="322.5" height="60" as="geometry" />
        </mxCell>
        <mxCell id="15g_x9tIWpdfK9ImZUIh-5" value="INSTRUCTIONS" style="rounded=0;whiteSpace=wrap;html=1;" vertex="1" parent="1">
          <mxGeometry x="200" y="-380" width="100" height="40" as="geometry" />
        </mxCell>
        <mxCell id="15g_x9tIWpdfK9ImZUIh-6" value="PLAY" style="rounded=0;whiteSpace=wrap;html=1;" vertex="1" parent="1">
          <mxGeometry x="377.5" y="-380" width="100" height="40" as="geometry" />
        </mxCell>
        <mxCell id="15g_x9tIWpdfK9ImZUIh-7" value="" style="rounded=0;whiteSpace=wrap;html=1;" vertex="1" parent="1">
          <mxGeometry x="117.5" y="-310" width="442.5" height="290" as="geometry" />
        </mxCell>
        <mxCell id="15g_x9tIWpdfK9ImZUIh-8" value="QUOTE" style="rounded=0;whiteSpace=wrap;html=1;" vertex="1" parent="1">
          <mxGeometry x="139.38" y="-290" width="398.75" height="49.38" as="geometry" />
        </mxCell>
        <mxCell id="15g_x9tIWpdfK9ImZUIh-9" value="TITLE" style="rounded=0;whiteSpace=wrap;html=1;" vertex="1" parent="1">
          <mxGeometry x="160" y="-170" width="100.62" height="60" as="geometry" />
        </mxCell>
        <mxCell id="15g_x9tIWpdfK9ImZUIh-10" value="TITLE" style="rounded=0;whiteSpace=wrap;html=1;" vertex="1" parent="1">
          <mxGeometry x="288.44" y="-170" width="100.62" height="60" as="geometry" />
        </mxCell>
        <mxCell id="15g_x9tIWpdfK9ImZUIh-11" value="TITLE" style="rounded=0;whiteSpace=wrap;html=1;" vertex="1" parent="1">
          <mxGeometry x="413.38" y="-170" width="100.62" height="60" as="geometry" />
        </mxCell>
        <mxCell id="15g_x9tIWpdfK9ImZUIh-12" value="HINT" style="rounded=0;whiteSpace=wrap;html=1;" vertex="1" parent="1">
          <mxGeometry x="300" y="-70" width="77.5" height="20" as="geometry" />
        </mxCell>
        <mxCell id="15g_x9tIWpdfK9ImZUIh-13" value="TIMER" style="rounded=0;whiteSpace=wrap;html=1;" vertex="1" parent="1">
          <mxGeometry x="90" y="-390" width="59.38" height="60" as="geometry" />
        </mxCell>
        <mxCell id="15g_x9tIWpdfK9ImZUIh-15" value="SCORE" style="rounded=0;whiteSpace=wrap;html=1;" vertex="1" parent="1">
          <mxGeometry x="530" y="-390" width="59.38" height="60" as="geometry" />
        </mxCell>
        <mxCell id="15g_x9tIWpdfK9ImZUIh-16" value="" style="rounded=0;whiteSpace=wrap;html=1;" vertex="1" parent="1">
          <mxGeometry x="640" y="-550" width="260" height="510" as="geometry" />
        </mxCell>
        <mxCell id="15g_x9tIWpdfK9ImZUIh-17" value="TITLE" style="rounded=0;whiteSpace=wrap;html=1;" vertex="1" parent="1">
          <mxGeometry x="660" y="-510" width="220" height="50" as="geometry" />
        </mxCell>
        <mxCell id="15g_x9tIWpdfK9ImZUIh-18" value="SCORE" style="rounded=0;whiteSpace=wrap;html=1;" vertex="1" parent="1">
          <mxGeometry x="790" y="-380" width="59.38" height="60" as="geometry" />
        </mxCell>
        <mxCell id="15g_x9tIWpdfK9ImZUIh-19" value="TIMER" style="rounded=0;whiteSpace=wrap;html=1;" vertex="1" parent="1">
          <mxGeometry x="690" y="-380" width="59.38" height="60" as="geometry" />
        </mxCell>
        <mxCell id="15g_x9tIWpdfK9ImZUIh-20" value="PLAY" style="rounded=0;whiteSpace=wrap;html=1;" vertex="1" parent="1">
          <mxGeometry x="769.69" y="-440" width="100" height="40" as="geometry" />
        </mxCell>
        <mxCell id="15g_x9tIWpdfK9ImZUIh-21" value="INSTRUCTIONS" style="rounded=0;whiteSpace=wrap;html=1;" vertex="1" parent="1">
          <mxGeometry x="660" y="-440" width="100" height="40" as="geometry" />
        </mxCell>
        <mxCell id="15g_x9tIWpdfK9ImZUIh-28" value="" style="rounded=0;whiteSpace=wrap;html=1;" vertex="1" parent="1">
          <mxGeometry x="650" y="-310" width="240" height="240" as="geometry" />
        </mxCell>
        <mxCell id="15g_x9tIWpdfK9ImZUIh-22" value="QUOTE" style="rounded=0;whiteSpace=wrap;html=1;" vertex="1" parent="1">
          <mxGeometry x="660" y="-300" width="220" height="49.38" as="geometry" />
        </mxCell>
        <mxCell id="15g_x9tIWpdfK9ImZUIh-24" value="TITLE" style="rounded=0;whiteSpace=wrap;html=1;" vertex="1" parent="1">
          <mxGeometry x="660" y="-230" width="220" height="30" as="geometry" />
        </mxCell>
        <mxCell id="15g_x9tIWpdfK9ImZUIh-25" value="TITLE" style="rounded=0;whiteSpace=wrap;html=1;" vertex="1" parent="1">
          <mxGeometry x="660" y="-190" width="220" height="30" as="geometry" />
        </mxCell>
        <mxCell id="15g_x9tIWpdfK9ImZUIh-26" value="TITLE" style="rounded=0;whiteSpace=wrap;html=1;" vertex="1" parent="1">
          <mxGeometry x="660" y="-150" width="220" height="30" as="geometry" />
        </mxCell>
        <mxCell id="15g_x9tIWpdfK9ImZUIh-27" value="HINT" style="rounded=0;whiteSpace=wrap;html=1;" vertex="1" parent="1">
          <mxGeometry x="731.25" y="-100" width="77.5" height="20" as="geometry" />
        </mxCell>
        <mxCell id="15g_x9tIWpdfK9ImZUIh-29" value="" style="rounded=0;whiteSpace=wrap;html=1;" vertex="1" parent="1">
          <mxGeometry x="80" y="80" width="520" height="310" as="geometry" />
        </mxCell>
        <mxCell id="15g_x9tIWpdfK9ImZUIh-30" value="TIMES UP!" style="rounded=0;whiteSpace=wrap;html=1;" vertex="1" parent="1">
          <mxGeometry x="170" y="120" width="337.5" height="60" as="geometry" />
        </mxCell>
        <mxCell id="15g_x9tIWpdfK9ImZUIh-31" value="SCORE" style="rounded=0;whiteSpace=wrap;html=1;" vertex="1" parent="1">
          <mxGeometry x="278.76" y="210" width="120" height="60" as="geometry" />
        </mxCell>
        <mxCell id="15g_x9tIWpdfK9ImZUIh-32" value="PLAY AGAIN" style="rounded=0;whiteSpace=wrap;html=1;" vertex="1" parent="1">
          <mxGeometry x="230" y="300" width="100" height="40" as="geometry" />
        </mxCell>
        <mxCell id="15g_x9tIWpdfK9ImZUIh-33" value="HOME" style="rounded=0;whiteSpace=wrap;html=1;" vertex="1" parent="1">
          <mxGeometry x="350" y="300" width="100" height="40" as="geometry" />
        </mxCell>
        <mxCell id="15g_x9tIWpdfK9ImZUIh-36" value="MODAL BOX&lt;br&gt;GAME OVER SCREEN" style="rounded=0;whiteSpace=wrap;html=1;" vertex="1" parent="1">
          <mxGeometry x="300" y="400" width="120" height="60" as="geometry" />
        </mxCell>
        <mxCell id="15g_x9tIWpdfK9ImZUIh-37" value="MAIN SCREEN DESKTOP" style="rounded=0;whiteSpace=wrap;html=1;" vertex="1" parent="1">
          <mxGeometry x="278.75" y="-620" width="120" height="60" as="geometry" />
        </mxCell>
        <mxCell id="15g_x9tIWpdfK9ImZUIh-38" value="MAIN SCREEN MOBILE" style="rounded=0;whiteSpace=wrap;html=1;" vertex="1" parent="1">
          <mxGeometry x="710" y="-620" width="120" height="60" as="geometry" />
        </mxCell>
      </root>
    </mxGraphModel>
  </diagram>
</mxfile>
